# xmcd
# 
# Track frame offsets:
#     150
#     15197
#     32417
#     52625
#     67827
#     89012
#     105928
#     126887
#     141394
#     160321
#     180953
# 
# Disc length: 2651
# 
# Revision: 0
# Processed by: cddbd v1.5.2PL0 Copyright (c) Steve Scherf et al.
# Submitted via: fre:ac v1.0.27
# 
DISCID=790a590b
DTITLE=DustinPerkins Band - The Next Step
DYEAR=2012
DGENRE=Country
TTITLE0=Too Late To Turn Back Now
TTITLE1=Dashboard Lights
TTITLE2=Closer To Your Side
TTITLE3=Some Things Never Change
TTITLE4=Guy
TTITLE5=Luckiest Man Alive
TTITLE6=Exactly What You Do To Me
TTITLE7=Puzzled
TTITLE8=Vindicated
TTITLE9=You're The One To Blame
TTITLE10=Bonnie And Clyde
EXTD=
EXTT0=
EXTT1=
EXTT2=
EXTT3=
EXTT4=
EXTT5=
EXTT6=
EXTT7=
EXTT8=
EXTT9=
EXTT10=
PLAYORDER=
